<?xml version="1.0" standalone="no"?>
<!DOCTYPE svg PUBLIC "-//W3C//DTD SVG 20010904//EN"
 "http://www.w3.org/TR/2001/REC-SVG-20010904/DTD/svg10.dtd">
<svg version="1.0" xmlns="http://www.w3.org/2000/svg"
 width="2920.000000pt" height="850.000000pt" viewBox="0 0 2920.000000 850.000000"
 preserveAspectRatio="xMidYMid meet">
<metadata>
Created by potrace 1.16, written by Peter Selinger 2001-2019
</metadata>
<g transform="translate(0.000000,850.000000) scale(0.100000,-0.100000)"
fill="#000000" stroke="none">
<path d="M3684 8065 c-221 -40 -381 -131 -399 -228 -9 -44 16 -99 56 -128 181
-128 662 -87 844 72 132 116 60 242 -162 285 -90 17 -243 17 -339 -1z"/>
<path d="M4570 8070 c-30 -6 -84 -25 -119 -42 -155 -79 -124 -212 73 -308 116
-57 216 -81 374 -87 156 -7 242 5 322 45 96 48 125 130 72 201 -52 71 -183
139 -337 176 -82 20 -306 28 -385 15z"/>
<path d="M19688 7583 c-10 -2 -18 -8 -18 -12 0 -4 126 -270 279 -592 273 -572
294 -610 323 -581 6 6 -17 206 -62 548 -39 297 -73 548 -75 560 -5 24 -41 36
-170 58 -100 16 -250 27 -277 19z"/>
<path d="M18763 7398 c-354 -167 -365 -174 -328 -212 14 -13 22 -12 80 10 87
32 158 32 190 0 51 -51 49 -14 53 -1336 2 -752 -1 -1274 -7 -1333 -17 -168
-63 -226 -197 -243 -50 -6 -54 -8 -54 -33 l0 -27 480 0 480 0 0 27 c0 25 -4
27 -57 33 -122 14 -170 59 -192 181 -8 41 -11 514 -11 1546 0 818 -3 1495 -6
1504 -7 17 -55 45 -76 45 -7 -1 -167 -74 -355 -162z"/>
<path d="M3655 7530 c-338 -53 -591 -248 -545 -422 16 -59 87 -126 164 -156
162 -62 403 -53 616 23 102 37 170 77 239 141 167 154 119 320 -114 394 -80
25 -260 35 -360 20z"/>
<path d="M4663 7516 c-170 -32 -293 -130 -293 -232 0 -62 24 -109 90 -174 89
-90 198 -141 385 -181 83 -18 303 -16 385 4 225 55 317 178 244 325 -14 28
-47 70 -72 93 -62 54 -206 123 -312 149 -110 28 -325 35 -427 16z"/>
<path d="M2633 7385 c-202 -55 -407 -206 -481 -355 -26 -50 -32 -76 -32 -124
0 -73 21 -112 76 -147 35 -22 50 -24 154 -23 105 0 123 3 202 33 172 65 344
205 406 330 36 75 42 172 12 219 -32 52 -107 82 -205 81 -44 0 -103 -7 -132
-14z"/>
<path d="M5716 7386 c-56 -21 -88 -47 -108 -87 -71 -139 80 -361 326 -479 105
-50 185 -70 283 -70 129 0 198 35 228 115 15 38 16 53 6 102 -15 78 -52 136
-136 218 -129 126 -304 204 -470 212 -63 2 -102 -1 -129 -11z"/>
<path d="M1833 7151 c-158 -54 -348 -247 -402 -408 -26 -78 -26 -119 -1 -160
23 -38 51 -47 124 -41 144 12 352 183 442 363 97 196 22 310 -163 246z"/>
<path d="M6623 7163 c-12 -2 -34 -18 -49 -36 -23 -27 -26 -38 -22 -88 15 -203
295 -482 499 -497 66 -4 69 -4 100 27 31 31 31 34 27 100 -8 103 -58 192 -178
312 -79 79 -109 103 -180 137 -82 40 -150 55 -197 45z"/>
<path d="M10100 7068 c0 -16 6 -28 13 -28 6 0 50 -4 96 -10 163 -19 204 -60
221 -226 8 -66 10 -473 8 -1219 -3 -1032 -5 -1124 -21 -1172 -30 -89 -79 -116
-234 -129 -83 -7 -83 -7 -83 -35 l0 -29 1108 0 c1044 0 1110 1 1124 18 12 13
17 58 22 207 4 105 13 273 21 375 21 257 21 252 -11 248 -23 -3 -30 -13 -54
-78 -120 -332 -378 -547 -736 -616 -107 -21 -444 -25 -510 -6 -47 14 -80 45
-96 93 -16 44 -24 2194 -9 2340 12 125 36 173 97 200 35 16 164 39 222 39 6 0
12 12 12 28 l0 27 -595 0 -595 0 0 -27z"/>
<path d="M3525 6780 c-235 -37 -450 -170 -527 -328 -28 -56 -34 -80 -37 -150
-3 -77 -1 -88 28 -147 84 -170 294 -264 565 -252 286 12 517 139 624 342 23
44 27 62 27 145 0 81 -4 102 -25 145 -49 101 -178 192 -325 230 -74 20 -249
27 -330 15z"/>
<path d="M4843 6750 c-153 -21 -249 -62 -341 -145 -75 -68 -107 -139 -107
-240 0 -69 5 -89 33 -149 48 -103 145 -192 276 -256 127 -62 199 -80 356 -87
148 -6 255 14 367 71 71 35 157 115 188 175 41 81 36 214 -13 306 -14 27 -58
82 -97 120 -55 55 -91 81 -165 117 -155 76 -344 109 -497 88z"/>
<path d="M2491 6650 c-234 -48 -459 -251 -537 -483 -39 -115 -39 -210 -1 -289
53 -108 140 -154 281 -146 230 13 484 218 576 465 28 74 33 101 33 173 0 97
-14 139 -68 199 -61 67 -182 102 -284 81z"/>
<path d="M5908 6635 c-59 -22 -102 -60 -134 -117 -27 -49 -29 -61 -28 -153 0
-83 4 -111 26 -166 101 -257 377 -469 610 -469 135 0 241 72 274 186 31 109 2
257 -77 391 -44 73 -179 208 -252 252 -111 65 -173 85 -282 88 -69 2 -112 -2
-137 -12z"/>
<path d="M6829 6437 c-76 -51 -101 -138 -81 -281 12 -82 56 -197 114 -294 51
-85 173 -204 251 -242 60 -29 73 -32 136 -28 81 4 111 24 143 96 24 54 26 174
3 264 -23 89 -96 231 -158 308 -137 168 -310 243 -408 177z"/>
<path d="M1555 6420 c-93 -36 -212 -153 -280 -274 -110 -196 -127 -435 -37
-518 40 -38 65 -48 121 -48 202 0 446 307 468 590 16 213 -97 317 -272 250z"/>
<path d="M16300 6040 c-131 -16 -240 -55 -359 -129 -43 -26 -49 -27 -67 -14
-36 28 -179 91 -249 109 -106 28 -380 26 -490 -4 -182 -50 -308 -117 -412
-220 -138 -137 -168 -352 -77 -544 49 -101 159 -208 270 -264 l81 -40 -70 -44
c-97 -63 -187 -161 -234 -256 -36 -74 -38 -83 -38 -174 0 -82 4 -102 25 -144
30 -60 95 -113 183 -151 l65 -29 -66 -49 c-93 -70 -238 -218 -295 -302 -97
-143 -131 -323 -88 -464 55 -180 241 -319 506 -377 108 -23 365 -24 491 -1
297 54 591 222 750 429 57 74 128 206 148 279 42 146 38 312 -10 420 -40 89
-138 176 -252 224 -110 46 -269 87 -485 125 -374 67 -475 95 -546 156 -55 48
-73 85 -73 154 0 65 20 114 60 153 25 24 30 25 82 16 88 -15 287 -12 371 6
166 34 302 95 415 186 130 106 186 216 185 368 0 121 -26 206 -89 290 l-25 34
79 -6 c88 -7 172 -27 252 -59 45 -18 55 -19 63 -7 32 52 47 290 20 322 -14 18
-21 19 -121 7z m-969 -120 c219 -68 366 -361 331 -659 -14 -112 -42 -179 -98
-230 -50 -47 -75 -55 -148 -49 -137 11 -258 136 -328 340 -32 91 -33 97 -33
263 0 153 2 176 23 226 47 118 122 150 253 109z m-166 -1834 c44 -9 136 -25
205 -36 472 -78 640 -200 640 -465 0 -300 -215 -505 -530 -505 -169 0 -306 56
-409 165 -110 118 -145 227 -145 445 1 129 4 154 27 226 31 95 94 196 117 190
8 -3 51 -12 95 -20z"/>
<path d="M20021 5884 c-195 -90 -357 -166 -359 -169 -9 -9 9 -55 22 -55 8 0
51 12 96 27 77 25 84 26 123 12 35 -11 46 -23 67 -64 l25 -50 3 -530 c3 -554
-1 -632 -39 -694 -23 -38 -82 -67 -156 -77 -29 -3 -54 -12 -57 -20 -15 -40
-14 -40 479 -40 l475 0 0 27 c0 25 -4 27 -56 34 -103 13 -149 44 -181 125 -17
42 -18 100 -18 815 -1 478 -4 776 -10 786 -9 14 -47 40 -57 39 -2 -1 -162 -75
-357 -166z"/>
<path d="M13465 6025 c-408 -76 -726 -366 -822 -751 -24 -95 -24 -333 0 -428
115 -461 512 -727 1011 -676 232 24 419 108 586 264 52 49 59 66 36 85 -11 9
-29 4 -82 -23 -240 -119 -519 -129 -725 -25 -43 21 -91 59 -145 113 -67 67
-89 98 -127 176 -79 161 -116 372 -102 576 l7 101 566 7 c358 4 571 11 577 17
6 6 10 61 10 127 -1 97 -5 127 -23 172 -46 116 -168 213 -317 255 -85 24 -344
29 -450 10z m142 -109 c33 -16 60 -38 77 -63 34 -49 66 -151 73 -234 l6 -66
-198 -6 c-109 -4 -253 -7 -321 -7 l-123 0 16 53 c21 73 78 179 125 231 95 109
230 145 345 92z"/>
<path d="M17346 6020 c-325 -69 -637 -252 -714 -418 -44 -96 -17 -211 60 -257
27 -16 51 -20 133 -20 126 0 181 23 226 94 35 55 45 88 59 204 22 178 83 273
194 298 146 32 230 -60 266 -291 10 -64 15 -600 5 -600 -16 0 -559 -180 -654
-216 -275 -107 -329 -167 -319 -357 5 -99 31 -154 96 -204 67 -51 136 -67 262
-60 156 7 325 66 549 190 90 51 101 54 101 34 0 -31 64 -138 104 -175 40 -37
96 -62 136 -62 8 0 128 54 265 119 219 105 250 122 253 144 4 29 -20 42 -48
27 -11 -6 -42 -15 -69 -20 -97 -18 -164 21 -203 119 -22 55 -22 70 -28 591 -5
524 -6 536 -28 591 -45 114 -108 182 -219 238 -104 52 -268 64 -427 31z m234
-1237 c0 -87 3 -181 6 -210 l7 -51 -49 -25 c-122 -62 -269 -86 -330 -54 -88
46 -128 161 -89 254 20 47 39 69 90 101 38 25 326 140 353 141 9 1 12 -37 12
-156z"/>
<path d="M3425 5739 c-153 -23 -271 -84 -386 -199 -69 -68 -94 -101 -127 -170
-57 -117 -73 -185 -73 -310 0 -125 16 -194 71 -305 184 -374 647 -497 996
-263 126 84 221 212 271 363 23 69 26 97 26 205 0 108 -3 136 -26 205 -91 277
-326 459 -617 479 -41 2 -102 0 -135 -5z"/>
<path d="M4975 5739 c-154 -24 -271 -84 -385 -198 -69 -69 -94 -103 -127 -171
-194 -399 13 -862 438 -977 86 -23 261 -23 349 0 305 81 510 349 510 667 0
195 -60 341 -200 481 -72 74 -99 93 -180 132 -52 24 -115 50 -140 55 -69 17
-198 22 -265 11z"/>
<path d="M2220 5621 c-166 -51 -312 -237 -376 -478 -25 -95 -26 -322 -1 -412
45 -163 141 -288 253 -331 81 -30 186 -25 267 12 108 50 223 184 280 326 51
124 62 187 61 347 0 135 -3 158 -27 231 -47 142 -126 241 -231 290 -40 19 -67
24 -126 23 -41 0 -86 -4 -100 -8z"/>
<path d="M6203 5606 c-209 -68 -333 -376 -278 -689 50 -287 228 -515 429 -547
262 -42 460 222 443 589 -10 215 -75 383 -199 516 -92 99 -167 137 -276 142
-47 2 -93 -3 -119 -11z"/>
<path d="M1320 5463 c-98 -52 -183 -181 -236 -360 -35 -118 -45 -338 -20 -456
38 -183 124 -286 240 -287 126 0 261 162 328 395 20 70 23 102 23 260 0 158
-3 189 -22 250 -42 134 -114 210 -209 221 -41 5 -58 1 -104 -23z"/>
<path d="M7085 5454 c-48 -25 -74 -55 -104 -119 -45 -94 -56 -156 -55 -300 2
-143 16 -225 63 -354 54 -148 148 -272 236 -312 48 -22 126 -24 163 -5 68 36
122 121 148 233 23 96 14 337 -16 448 -48 181 -162 355 -264 404 -51 25 -129
27 -171 5z"/>
<path d="M724 5291 c-118 -54 -212 -278 -222 -532 -7 -198 24 -327 95 -389 83
-73 193 -9 269 156 48 103 74 219 81 360 9 187 -21 316 -90 382 -42 40 -81 47
-133 23z"/>
<path d="M7795 5289 c-61 -17 -112 -98 -135 -217 -18 -92 -8 -337 19 -435 38
-143 106 -258 172 -293 41 -21 101 -18 133 7 35 28 73 103 92 186 23 96 14
337 -15 446 -31 112 -78 205 -131 258 -48 48 -84 61 -135 48z"/>
<path d="M650 4219 c-93 -36 -143 -169 -143 -379 0 -239 64 -443 169 -540 38
-35 49 -40 92 -40 64 0 92 22 131 103 42 86 55 175 48 331 -8 192 -62 370
-142 464 -44 53 -110 78 -155 61z"/>
<path d="M7853 4185 c-69 -42 -130 -149 -175 -310 -19 -68 -22 -105 -23 -250
0 -179 9 -230 57 -311 51 -87 150 -87 226 0 102 116 157 302 157 531 -1 182
-39 301 -111 345 -42 27 -80 25 -131 -5z"/>
<path d="M1196 4177 c-112 -64 -173 -273 -147 -503 31 -272 153 -509 296 -575
48 -22 126 -24 163 -5 68 36 122 121 148 233 23 96 14 337 -16 448 -48 181
-162 355 -264 404 -57 28 -129 27 -180 -2z"/>
<path d="M7202 4169 c-218 -108 -341 -618 -223 -930 40 -104 127 -179 211
-179 118 0 244 141 310 348 100 309 42 678 -120 764 -47 25 -124 24 -178 -3z"/>
<path d="M2074 4162 c-111 -47 -195 -148 -241 -286 -31 -97 -43 -296 -24 -399
47 -245 175 -439 341 -516 77 -36 203 -37 273 -2 163 80 259 274 259 521 0
233 -77 437 -216 575 -87 86 -158 119 -266 122 -63 2 -95 -2 -126 -15z"/>
<path d="M3408 4170 c-162 -28 -317 -118 -417 -244 -175 -219 -203 -512 -73
-761 50 -96 181 -227 277 -277 200 -104 421 -109 624 -13 225 107 370 320 388
575 8 118 -15 228 -74 349 -37 78 -59 109 -127 177 -68 68 -99 90 -177 127
-141 68 -281 90 -421 67z"/>
<path d="M4935 4164 c-38 -8 -113 -35 -165 -61 -80 -39 -108 -59 -180 -132
-63 -63 -95 -106 -123 -161 -137 -274 -88 -590 123 -800 85 -84 156 -130 257
-165 361 -125 748 62 877 424 29 80 31 96 31 221 0 115 -3 145 -23 205 -36
107 -79 180 -154 260 -170 182 -404 258 -643 209z"/>
<path d="M6285 4156 c-66 -21 -128 -62 -192 -129 -134 -140 -203 -331 -203
-561 0 -125 20 -219 64 -313 41 -87 106 -159 178 -199 48 -26 62 -29 143 -29
82 0 96 3 159 34 204 100 338 361 338 661 1 250 -88 436 -244 515 -60 30 -80
35 -137 34 -36 0 -84 -6 -106 -13z"/>
<path d="M1309 2961 c-106 -34 -149 -153 -114 -322 42 -210 201 -437 362 -516
46 -22 72 -28 125 -28 79 0 110 18 148 86 22 39 25 55 24 139 -1 76 -7 112
-29 179 -50 149 -151 295 -260 378 -96 73 -191 104 -256 84z"/>
<path d="M7122 2944 c-107 -53 -217 -177 -287 -327 -47 -99 -65 -176 -65 -278
0 -75 4 -94 28 -139 36 -70 76 -92 157 -88 71 4 137 34 203 91 234 201 339
590 197 727 -33 32 -41 35 -108 37 -61 3 -80 -1 -125 -23z"/>
<path d="M2120 2811 c-69 -21 -132 -74 -166 -141 -26 -51 -31 -181 -9 -255 52
-182 196 -356 365 -444 102 -53 169 -71 264 -71 97 0 163 26 215 85 53 61 65
98 64 200 -1 158 -64 289 -207 430 -99 99 -202 161 -312 190 -61 16 -171 19
-214 6z"/>
<path d="M6260 2806 c-113 -33 -253 -125 -333 -218 -110 -130 -164 -248 -174
-378 -8 -106 13 -172 72 -232 56 -57 113 -78 215 -78 292 0 611 309 628 608 8
137 -31 224 -125 279 -42 24 -59 28 -143 30 -56 1 -113 -3 -140 -11z"/>
<path d="M3321 2664 c-36 -7 -96 -29 -135 -47 -341 -163 -304 -544 70 -730
245 -123 531 -125 754 -6 172 92 242 283 163 450 -75 160 -259 287 -485 333
-95 20 -278 20 -367 0z"/>
<path d="M4900 2631 c-189 -42 -325 -122 -432 -252 -87 -106 -106 -255 -48
-370 29 -55 99 -122 172 -162 327 -183 867 -44 1011 261 28 59 32 77 32 152 0
74 -4 92 -29 140 -53 103 -166 184 -312 225 -93 26 -290 29 -394 6z"/>
<path d="M17330 2460 c-79 -37 -146 -73 -148 -78 -6 -19 16 -22 62 -10 41 11
48 10 64 -5 15 -16 17 -46 20 -263 l3 -245 -38 8 c-21 4 -76 8 -123 8 -152 -1
-293 -65 -372 -170 -59 -78 -73 -130 -73 -270 1 -143 21 -206 89 -282 66 -74
123 -98 226 -98 96 0 156 22 242 88 l48 37 6 -28 c13 -61 27 -94 41 -99 21 -8
303 127 303 145 0 15 -28 13 -87 -4 -14 -4 -28 1 -42 15 -21 21 -21 25 -21
659 0 660 0 663 -39 661 -9 0 -81 -31 -161 -69z m-95 -659 c22 -10 52 -31 68
-46 l27 -28 0 -244 c0 -241 0 -245 -22 -264 -60 -51 -139 -74 -201 -58 -52 14
-110 69 -136 128 -42 98 -52 275 -20 379 36 121 171 185 284 133z"/>
<path d="M21717 2458 c-139 -67 -177 -98 -111 -89 116 14 114 19 114 -278 l0
-233 -22 6 c-198 56 -458 -46 -541 -211 -79 -156 -56 -383 52 -506 16 -18 54
-46 83 -63 47 -26 63 -29 138 -29 74 0 93 4 150 31 36 17 82 45 102 63 20 17
38 31 42 31 3 0 6 -14 6 -30 0 -43 26 -100 46 -100 30 0 294 132 294 148 0 14
-29 13 -85 -3 -11 -3 -29 1 -40 9 -20 14 -20 28 -23 657 -2 449 -6 646 -13
656 -18 21 -36 15 -192 -59z m-104 -650 c22 -7 55 -26 73 -44 l34 -31 0 -250
0 -249 -27 -20 c-146 -108 -288 -61 -344 113 -28 87 -30 250 -6 335 38 126
143 184 270 146z"/>
<path d="M26350 2461 c-97 -45 -146 -74 -148 -86 -3 -15 1 -17 25 -11 72 18
78 18 97 -3 26 -28 30 -187 19 -769 l-8 -444 -24 -19 c-13 -10 -36 -19 -52
-19 -19 0 -29 -5 -29 -15 0 -13 30 -15 210 -15 180 0 210 2 210 15 0 10 -10
15 -27 15 -38 1 -62 21 -73 61 -6 20 -10 298 -10 684 0 658 -1 675 -34 675 -6
0 -76 -31 -156 -69z"/>
<path d="M27863 2343 c-6 -2 -116 -234 -243 -516 -128 -282 -250 -541 -271
-577 -56 -98 -109 -140 -175 -140 -15 0 -24 -6 -24 -15 0 -13 34 -15 250 -15
216 0 250 2 250 15 0 10 -10 15 -33 15 -42 0 -115 37 -140 71 -13 18 -19 43
-19 76 0 47 14 84 144 371 l19 42 175 -2 176 -3 113 -220 c129 -250 143 -287
114 -316 -11 -11 -33 -19 -54 -19 -25 0 -35 -4 -35 -15 0 -13 32 -15 250 -13
158 2 250 7 250 13 0 6 -13 13 -29 18 -70 18 -102 71 -462 784 -123 244 -228
444 -234 446 -5 2 -15 2 -22 0z m-3 -453 c38 -77 70 -142 70 -145 0 -3 -61 -5
-135 -5 -74 0 -135 3 -135 7 0 10 122 283 127 283 1 0 34 -63 73 -140z"/>
<path d="M10100 2315 c0 -7 20 -15 49 -19 90 -12 85 10 92 -460 5 -380 7 -416
26 -473 67 -202 239 -313 488 -313 216 0 373 89 453 257 l37 78 5 385 c5 365
6 387 26 431 24 50 65 86 113 95 17 4 31 12 31 19 0 10 -48 13 -215 13 -161 0
-215 -3 -215 -12 0 -6 20 -17 44 -24 57 -15 99 -51 122 -104 16 -38 19 -80 22
-352 5 -426 -11 -518 -103 -611 -99 -98 -280 -122 -415 -55 -55 28 -124 109
-148 173 -35 93 -44 216 -40 569 l3 326 24 26 c17 18 39 28 73 32 29 4 48 12
48 19 0 10 -57 13 -260 13 -202 0 -260 -3 -260 -13z"/>
<path d="M22590 2315 c0 -7 20 -15 49 -19 37 -5 55 -13 70 -33 21 -25 21 -36
21 -554 0 -366 -3 -536 -11 -552 -14 -30 -48 -47 -94 -47 -25 0 -35 -5 -35
-15 0 -13 58 -15 488 -13 l487 3 7 130 c3 72 9 154 12 183 5 43 3 52 -9 52 -9
0 -18 -8 -21 -17 -48 -143 -172 -252 -323 -284 -80 -16 -226 -9 -248 14 -17
16 -18 53 -21 510 -2 271 0 511 3 535 8 57 33 80 95 88 30 4 50 12 50 19 0 10
-57 13 -260 13 -202 0 -260 -3 -260 -13z"/>
<path d="M28680 2316 c0 -7 23 -17 52 -22 38 -7 56 -16 72 -37 20 -28 21 -40
24 -480 5 -648 4 -655 -96 -665 -35 -3 -52 -9 -52 -18 0 -12 46 -14 260 -14
214 0 260 2 260 14 0 9 -17 15 -52 18 -94 9 -88 -29 -88 588 0 527 0 538 21
563 15 20 33 28 70 33 29 4 49 12 49 19 0 10 -58 13 -260 13 -195 0 -260 -3
-260 -12z"/>
<path d="M1452 1993 c-36 -30 -46 -83 -27 -156 23 -91 68 -160 175 -268 79
-79 110 -103 182 -139 173 -85 280 -47 264 95 -10 91 -69 188 -181 300 -127
128 -212 176 -320 182 -57 3 -74 0 -93 -14z"/>
<path d="M6960 1987 c-152 -63 -319 -233 -381 -388 -29 -74 -24 -163 12 -190
59 -45 165 -26 283 51 198 132 340 356 305 484 -19 68 -114 86 -219 43z"/>
<path d="M19878 1997 c-8 -7 -26 -31 -41 -54 -33 -52 -97 -91 -176 -105 -48
-9 -61 -15 -61 -30 0 -11 7 -18 20 -18 28 0 68 -20 77 -39 4 -9 10 -144 13
-301 5 -281 5 -285 29 -319 55 -77 211 -101 321 -50 66 31 160 104 160 124 0
21 -12 19 -65 -9 -95 -51 -184 -41 -225 26 -19 31 -20 50 -20 291 l0 257 53
-1 c28 0 85 -6 125 -13 67 -12 74 -12 82 5 12 21 13 69 2 85 -5 7 -33 8 -87 3
-44 -4 -101 -8 -127 -8 l-48 -1 0 79 c0 83 -7 99 -32 78z"/>
<path d="M11960 1865 c-60 -17 -109 -46 -169 -101 l-39 -34 -11 47 c-16 62
-36 93 -61 93 -26 0 -300 -137 -300 -149 0 -19 18 -21 54 -6 52 22 83 19 101
-9 14 -21 16 -62 13 -291 -3 -267 -3 -267 -27 -286 -13 -10 -36 -19 -52 -19
-19 0 -29 -5 -29 -15 0 -13 30 -15 210 -15 180 0 210 2 210 15 0 9 -10 15 -26
15 -76 0 -84 30 -84 321 l0 237 33 20 c82 48 189 59 236 25 60 -45 66 -69 69
-292 2 -113 1 -220 -3 -238 -8 -44 -38 -73 -75 -73 -20 0 -30 -5 -30 -15 0
-13 30 -15 210 -15 180 0 210 2 210 15 0 10 -10 15 -29 15 -16 0 -39 9 -52 19
-24 19 -24 20 -30 293 -6 290 -8 307 -60 380 -44 62 -168 91 -269 63z"/>
<path d="M12977 1870 c-48 -13 -126 -52 -165 -84 -16 -15 -32 -26 -35 -26 -3
0 -8 15 -11 33 -8 42 -32 77 -54 77 -26 1 -301 -134 -302 -147 0 -21 17 -23
54 -8 50 21 82 19 100 -7 14 -20 16 -90 16 -561 l0 -538 -25 -24 c-15 -16 -36
-25 -55 -25 -20 0 -30 -5 -30 -15 0 -13 34 -15 245 -15 211 0 245 2 245 15 0
11 -12 15 -45 15 -61 0 -113 23 -125 55 -6 15 -10 123 -10 242 0 201 1 215 18
208 42 -16 188 -17 257 -1 184 44 298 165 326 347 40 259 -86 455 -299 465
-37 2 -84 -1 -105 -6z m25 -122 c56 -17 121 -78 148 -139 44 -103 37 -289 -15
-396 -58 -118 -197 -139 -312 -46 l-43 34 0 249 0 249 28 19 c58 41 124 51
194 30z"/>
<path d="M19099 1866 c-57 -15 -122 -53 -175 -103 l-42 -38 -6 43 c-7 54 -35
102 -58 102 -9 0 -80 -30 -158 -67 -105 -50 -140 -71 -140 -85 0 -22 -1 -22
43 -3 20 8 50 15 67 15 53 0 60 -34 60 -297 0 -126 -4 -243 -10 -262 -11 -40
-35 -60 -72 -61 -18 0 -28 -5 -28 -15 0 -13 30 -15 210 -15 180 0 210 2 210
15 0 10 -10 15 -29 15 -40 0 -70 28 -81 75 -5 22 -10 137 -10 256 0 244 -4
231 84 269 59 27 140 29 185 6 54 -28 71 -83 78 -244 7 -173 -3 -305 -26 -333
-9 -11 -32 -24 -50 -28 -19 -3 -36 -12 -39 -19 -3 -9 45 -12 207 -12 181 0
211 2 211 15 0 9 -9 15 -24 15 -14 0 -38 11 -53 24 l-28 24 -5 279 c-5 263 -6
280 -27 320 -54 101 -168 143 -294 109z"/>
<path d="M13593 1802 c-99 -49 -133 -71 -133 -85 0 -11 5 -17 13 -13 77 32
128 31 143 -1 10 -23 18 -421 9 -491 -8 -62 -39 -102 -80 -102 -16 0 -25 -6
-25 -15 0 -13 34 -15 246 -15 192 0 245 3 242 13 -3 6 -31 15 -63 19 -73 10
-101 28 -114 75 -6 21 -11 137 -11 260 l0 222 44 35 c23 20 53 36 66 36 13 0
42 -18 66 -40 53 -48 106 -55 149 -17 54 47 42 125 -28 167 -68 42 -143 21
-237 -67 l-58 -53 -7 38 c-9 56 -40 102 -67 101 -13 0 -83 -30 -155 -67z"/>
<path d="M14577 1859 c-179 -42 -321 -203 -334 -381 -16 -218 110 -381 327
-420 125 -22 292 26 369 106 40 41 35 56 -12 37 -159 -65 -287 -52 -378 39
-64 64 -90 136 -97 268 l-5 102 251 0 250 0 7 28 c7 35 -7 104 -29 137 -23 35
-75 72 -121 84 -47 13 -174 13 -228 0z m102 -55 c28 -20 51 -72 51 -114 0 -29
-2 -30 -43 -30 -24 0 -85 -3 -136 -7 l-91 -6 14 41 c19 52 54 100 86 118 34
18 91 17 119 -2z"/>
<path d="M15406 1855 c-71 -20 -165 -68 -212 -109 -199 -171 -166 -518 61
-642 149 -82 335 -66 480 41 82 60 73 85 -15 44 -26 -13 -75 -23 -116 -26
-213 -16 -331 117 -327 367 4 175 65 277 174 288 43 4 49 2 65 -24 11 -15 28
-50 39 -78 26 -64 60 -89 125 -90 40 -1 54 4 75 25 61 61 34 142 -63 187 -69
32 -206 40 -286 17z"/>
<path d="M16221 1855 c-120 -34 -237 -132 -289 -242 -24 -52 -27 -69 -27 -168
0 -100 3 -116 29 -172 33 -72 113 -154 178 -183 150 -66 349 -40 471 60 20 17
37 38 37 46 0 18 4 18 -87 -12 -178 -60 -317 -6 -390 151 -23 51 -28 76 -31
167 l-4 108 248 2 249 3 3 40 c8 89 -24 147 -102 187 -54 28 -206 35 -285 13z
m111 -46 c23 -13 57 -83 58 -120 l0 -26 -131 -7 c-72 -4 -133 -5 -137 -2 -12
12 55 121 87 143 36 25 90 30 123 12z"/>
<path d="M18061 1855 c-123 -35 -228 -122 -284 -234 -61 -124 -46 -310 33
-415 41 -54 119 -111 182 -132 70 -24 212 -24 290 0 63 19 178 97 178 121 0
19 4 20 -87 -11 -142 -48 -258 -24 -342 72 -61 70 -87 166 -82 311 l1 43 248
2 247 3 3 40 c8 89 -24 147 -102 187 -54 28 -206 35 -285 13z m124 -59 c13
-13 28 -41 34 -62 20 -73 25 -70 -120 -78 -72 -4 -133 -5 -136 -3 -8 8 36 100
60 125 45 49 123 57 162 18z"/>
<path d="M20627 1859 c-104 -25 -214 -103 -273 -194 -103 -162 -79 -387 55
-508 153 -138 417 -138 571 1 49 44 48 64 -3 43 -159 -65 -287 -52 -378 39
-65 65 -91 137 -97 268 l-4 102 250 0 250 0 6 33 c17 93 -49 189 -149 216 -47
13 -174 13 -228 0z m102 -55 c28 -20 51 -72 51 -114 0 -29 -2 -30 -43 -30 -24
0 -85 -3 -135 -6 l-91 -7 9 32 c32 112 137 175 209 125z"/>
<path d="M24013 1855 c-165 -46 -279 -159 -319 -315 -45 -176 36 -365 190
-440 158 -78 372 -52 494 60 60 55 41 61 -68 21 -66 -24 -160 -27 -220 -6
-126 44 -207 196 -198 370 l3 60 247 3 248 2 6 26 c19 75 -28 169 -103 205
-61 29 -201 36 -280 14z m114 -57 c27 -30 39 -55 47 -100 l7 -38 -53 0 c-29 0
-90 -3 -135 -7 -97 -7 -100 -2 -58 76 33 60 78 91 131 91 29 0 46 -6 61 -22z"/>
<path d="M24800 1859 c-107 -18 -204 -78 -240 -150 -25 -49 -26 -130 -1 -184
19 -43 85 -109 120 -120 27 -8 27 -19 -3 -39 -73 -48 -123 -137 -113 -202 8
-50 30 -79 74 -100 l38 -18 -81 -81 c-62 -61 -85 -92 -98 -129 -63 -191 72
-321 334 -318 254 2 471 165 496 372 9 79 -8 130 -59 177 -53 49 -121 72 -311
108 -144 27 -208 51 -226 84 -14 28 -12 63 6 89 14 20 23 22 110 22 213 0 357
101 357 249 0 33 -7 71 -16 91 -9 18 -17 35 -17 37 0 9 62 1 104 -13 26 -9 50
-13 54 -10 3 4 8 39 10 78 l4 71 -60 -5 c-39 -3 -80 -14 -119 -34 l-60 -29
-33 19 c-39 23 -132 46 -180 45 -19 -1 -60 -5 -90 -10z m78 -53 c35 -18 75
-62 98 -106 25 -50 32 -186 10 -228 -68 -132 -227 -25 -243 165 -13 147 43
217 135 169z m142 -837 c48 -16 97 -54 115 -89 19 -36 19 -120 1 -164 -19 -46
-79 -101 -125 -114 -126 -38 -267 19 -305 123 -29 80 -23 210 13 268 l21 34
122 -23 c68 -12 139 -28 158 -35z"/>
<path d="M25700 1854 c-125 -34 -246 -108 -275 -170 -14 -31 -15 -43 -6 -75
10 -32 18 -40 51 -50 51 -15 113 1 136 36 9 14 22 57 30 97 19 101 65 142 129
118 45 -17 63 -77 71 -235 l7 -140 -124 -38 c-155 -48 -261 -92 -284 -117 -10
-11 -20 -42 -23 -71 -14 -152 127 -190 336 -89 46 22 87 40 92 40 4 0 13 -14
20 -30 15 -36 55 -70 82 -70 32 0 238 102 238 117 0 12 -9 13 -40 8 -100 -17
-110 9 -110 292 0 128 -5 234 -11 258 -14 51 -73 110 -124 124 -54 15 -128 13
-195 -5z m140 -555 l0 -90 -37 -16 c-21 -8 -54 -18 -74 -20 -85 -12 -126 104
-53 152 24 15 140 63 157 65 4 0 7 -41 7 -91z"/>
<path d="M6105 1802 c-199 -59 -392 -206 -465 -355 -79 -162 -16 -279 158
-294 177 -15 408 88 559 250 146 157 162 326 38 391 -55 29 -205 33 -290 8z"/>
<path d="M2245 1781 c-107 -48 -133 -156 -68 -284 35 -72 161 -192 253 -244
123 -69 218 -96 335 -97 89 -1 106 2 150 24 67 35 99 93 92 167 -17 171 -242
375 -484 437 -85 22 -227 21 -278 -3z"/>
<path d="M3395 1625 c-109 -21 -220 -77 -262 -133 -28 -37 -33 -52 -33 -100 0
-36 7 -71 21 -99 46 -96 198 -191 384 -240 86 -22 121 -26 250 -26 194 -1 292
24 392 101 74 56 95 151 52 239 -88 183 -499 315 -804 258z"/>
<path d="M4877 1625 c-103 -20 -186 -48 -280 -97 -96 -50 -164 -110 -201 -178
-24 -44 -28 -60 -24 -111 6 -77 40 -122 128 -167 285 -143 822 -20 960 222 76
132 12 256 -166 315 -89 30 -298 38 -417 16z"/>
<path d="M3483 910 c-198 -42 -261 -164 -141 -276 182 -170 696 -220 853 -83
98 86 45 202 -129 285 -121 58 -211 76 -386 80 -85 1 -174 -1 -197 -6z"/>
<path d="M4759 905 c-105 -17 -193 -45 -279 -91 -211 -113 -161 -283 97 -329
251 -45 572 30 693 161 34 37 40 50 40 88 0 140 -249 218 -551 171z"/>
</g>
</svg>
